<svg xmlns="http://www.w3.org/2000/svg" width="420" height="420" viewBox="0 0 420 420" role="img" aria-label="Nettlenaut"><defs><linearGradient id="grad-psu-029" x1="0" x2="1" y1="0" y2="1"><stop offset="0%" stop-color="#fb7185"/><stop offset="100%" stop-color="#7c3aed"/></linearGradient><radialGradient id="bg-psu-029" cx="30%" cy="25%" r="85%"><stop offset="0%" stop-color="#ffe4e6" stop-opacity="0.12"/><stop offset="100%" stop-color="#0f172a" stop-opacity="1"/></radialGradient></defs><rect width="420" height="420" rx="42" fill="url(#bg-psu-029)"/><circle cx="70" cy="72" r="42" fill="#fb7185" opacity="0.15"/><circle cx="346" cy="82" r="36" fill="#22d3ee" opacity="0.14"/><g transform="rotate(0 210 210)"><ellipse cx="210" cy="242" rx="132" ry="108" fill="#020617" opacity="0.25"/><rect x="102" y="118" width="216" height="210" rx="86" fill="url(#grad-psu-029)"/><line x1="145" y1="170" x2="210" y2="140" stroke="#ffe4e6" stroke-width="4" opacity="0.4"/><line x1="210" y1="140" x2="275" y2="180" stroke="#ffe4e6" stroke-width="4" opacity="0.4"/><line x1="145" y1="170" x2="175" y2="245" stroke="#ffe4e6" stroke-width="4" opacity="0.4"/><line x1="175" y1="245" x2="250" y2="255" stroke="#ffe4e6" stroke-width="4" opacity="0.4"/><line x1="275" y1="180" x2="250" y2="255" stroke="#ffe4e6" stroke-width="4" opacity="0.4"/><circle cx="145" cy="170" r="9" fill="#ffe4e6" opacity="0.7"/><circle cx="210" cy="140" r="9" fill="#ffe4e6" opacity="0.7"/><circle cx="275" cy="180" r="9" fill="#ffe4e6" opacity="0.7"/><circle cx="175" cy="245" r="9" fill="#ffe4e6" opacity="0.7"/><circle cx="250" cy="255" r="9" fill="#ffe4e6" opacity="0.7"/><circle cx="151" cy="204" r="18" fill="#111827"/><circle cx="269" cy="204" r="18" fill="#111827"/><circle cx="149" cy="198" r="6" fill="#fff"/><circle cx="271" cy="198" r="6" fill="#fff"/><path d="M164 258 Q210 294 256 258" stroke="#111827" stroke-width="8" fill="none" stroke-linecap="round"/><g opacity="0.88"><rect x="124" y="306" width="172" height="44" rx="16" fill="#111827" opacity="0.86"/><text x="210" y="335" text-anchor="middle" font-family="Inter,Arial" font-size="24" font-weight="800" fill="#e5eefb">NET</text></g></g><text x="210" y="34" text-anchor="middle" font-family="Baloo 2,Arial" font-size="26" font-weight="700" fill="#e5eefb">Nettlenaut</text><text x="210" y="392" text-anchor="middle" font-family="Inter,Arial" font-size="18" fill="#a8b8d8">Networks • Legend</text></svg>