<svg xmlns="http://www.w3.org/2000/svg" width="420" height="420" viewBox="0 0 420 420" role="img" aria-label="Cachearoo"><defs><linearGradient id="grad-psu-001" x1="0" x2="1" y1="0" y2="1"><stop offset="0%" stop-color="#f59e0b"/><stop offset="100%" stop-color="#92400e"/></linearGradient><radialGradient id="bg-psu-001" cx="30%" cy="25%" r="85%"><stop offset="0%" stop-color="#ffedd5" stop-opacity="0.12"/><stop offset="100%" stop-color="#0f172a" stop-opacity="1"/></radialGradient></defs><rect width="420" height="420" rx="42" fill="url(#bg-psu-001)"/><circle cx="70" cy="72" r="42" fill="#f59e0b" opacity="0.15"/><circle cx="346" cy="82" r="36" fill="#22d3ee" opacity="0.14"/><g transform="rotate(-8 210 210)"><ellipse cx="210" cy="242" rx="132" ry="108" fill="#020617" opacity="0.25"/><rect x="102" y="118" width="216" height="210" rx="86" fill="url(#grad-psu-001)"/><text x="210" y="230" text-anchor="middle" font-size="60" font-weight="800" fill="#ffedd5" opacity="0.18">MEM</text><circle cx="149" cy="204" r="18" fill="#111827"/><circle cx="271" cy="204" r="18" fill="#111827"/><circle cx="147" cy="198" r="6" fill="#fff"/><circle cx="273" cy="198" r="6" fill="#fff"/><path d="M164 258 Q210 294 256 258" stroke="#111827" stroke-width="8" fill="none" stroke-linecap="round"/><g opacity="0.88"><rect x="124" y="306" width="172" height="44" rx="16" fill="#111827" opacity="0.86"/><text x="210" y="335" text-anchor="middle" font-family="Inter,Arial" font-size="24" font-weight="800" fill="#e5eefb">MEM</text></g></g><text x="210" y="34" text-anchor="middle" font-family="Baloo 2,Arial" font-size="26" font-weight="700" fill="#e5eefb">Cachearoo</text><text x="210" y="392" text-anchor="middle" font-family="Inter,Arial" font-size="18" fill="#a8b8d8">Memory • Bronze</text></svg>